# xmcd CD database file
#
# Track frame offsets:
#	150
#	13052
#	32627
#	51212
#	68797
#	87925
#	101045
#	136167
#	152250
#	172295
#	193745
#	216580
#	233790
#	248200
#
# Disc length: 3634 seconds
#
# Revision: 0
# Processed by: cddbd v1.5.1PL0 Copyright (c) Steve Scherf et al.
# Submitted via: CDex 1.51
#
DISCID=c30e300e
DTITLE=Dan Barrett - Two Sleepy People
DYEAR=1994
DGENRE=Jazz
TTITLE0=Two Sleepy People
TTITLE1=Hey, Good Lookin'
TTITLE2=I Like the Likes of You
TTITLE3=All My Love
TTITLE4=Remember Me
TTITLE5=Whoa Babe
TTITLE6=Medley for Billie Holiday: They Say/One Never Knows, Does One?/Foolin'
TTITLE7=Who Loves You?
TTITLE8=Oh, You Crazy Moon
TTITLE9=Hear Me Talkin' to Ya?
TTITLE10=Moanin' Low
TTITLE11=You Can't Lose a Broken Heart
TTITLE12=Why Do I Lie to Myself About You?
TTITLE13=Two Sleepy People
EXTD=YEAR: 1994
EXTT0=
EXTT1=
EXTT2=
EXTT3=
EXTT4=
EXTT5=
EXTT6=
EXTT7=
EXTT8=
EXTT9=
EXTT10=
EXTT11=
EXTT12=
EXTT13=
PLAYORDER=
